<?xml version="1.0" encoding="utf-8"?>
<!-- Designed by Vexels.com - 2020 All Rights Reserved - https://vexels.com/terms-and-conditions/  -->
<svg version="1.1" id="Layer_1" xmlns="http://www.w3.org/2000/svg" xmlns:xlink="http://www.w3.org/1999/xlink" x="0px" y="0px"
	 viewBox="0 0 1200 1200" enable-background="new 0 0 1200 1200" xml:space="preserve">
<g>
	<path fill="#03566D" d="M682.68,50c-45.974,0-91.194,8.958-133.415,26.65c-68.147,28.56-123.357,71.355-155.468,120.5
		c-21.989,33.639-38.289,76.681-45.9,121.2c-0.505,2.947-1.047,5.889-1.584,8.834c-1.316,7.145-2.668,14.534-3.432,21.831
		c-0.105,0.997-0.3,2.339-0.532,3.897c-0.8,5.374-2.468,16.553,0.037,19.563c4.684,5.647,25.01,3.976,35.921,3.084
		c3.479-0.287,6.484-0.529,8.637-0.574c7.389-1.289,17.953-1.203,28.168-1.097c6.958,0.068,14.168,0.134,20.242-0.266
		c14.932-0.974,30.11-1.339,44.795-1.692c7.495-0.182,14.995-0.363,22.489-0.621c16.074-0.555,32.131-1.229,48.189-1.903
		c28.405-1.192,57.779-2.424,86.731-2.945c28.605-0.516,58.484-1.584,87.373-2.618c56.716-2.024,115.368-4.129,168.205-2.213
		c9.858-0.003,28.2-0.666,33.205-1.053c5.01-0.087,9.953,0.266,14.679,0.532c5.163,0.289,10.51,0.608,15.716,0.518
		c7.774-4.95,3.168-41.558,1.632-53.731c-0.416-3.324-0.737-5.889-0.832-7.305c-2.737-41.273-14.337-81.697-32.658-113.826
		c-13.884-24.345-31.231-52.339-54.631-75.371c-26.589-26.174-66.51-44.581-118.657-54.713C728.622,52.218,705.559,50,682.68,50z
		 M651.517,286.567l-0.037,0.008c-2.3,0.387-4.521,0.571-6.658,0.571c-18.831,0-31.131-14.308-33.868-30.047
		c-2.921-16.768,4.526-36.718,27.774-40.9c22.431-4.037,37.31,11.537,40.479,28.984C682.37,262.657,673.88,282.483,651.517,286.567z
		 M872.579,219.944c22.4-4.045,37.31,11.56,40.468,29.029c3.153,17.46-5.342,37.263-27.689,41.329l-0.021,0.005
		c-2.363,0.411-4.637,0.605-6.826,0.605c-18.684,0-30.921-14.21-33.689-29.889C841.843,244.17,849.258,224.128,872.579,219.944z"/>
	<path fill="#03566D" d="M905.027,386.917c7.089-0.684,14.395-1.389,21.684-1.637c-0.005-0.745-0.005-1.45,0-2.121
		c0.01-2.689,0.016-5.013-0.711-5.724c-0.526-0.508-2.058-1.118-6.516-0.955c-0.626,0.013-1.684,0.005-2.968-0.008
		c-0.732-0.011-1.863-0.024-3.158-0.024c-3.595,0-8.453,0.1-9.642,0.668c-0.242,0.345,0.01,3.018,0.174,4.787
		c0.158,1.65,0.321,3.411,0.184,5.105L905.027,386.917z"/>
	<path fill="#03566D" d="M887.753,376.967c-2.221-1.963-17.221-0.911-22.868-0.516c-1.3,0.092-2.5,0.176-3.558,0.239
		c0.342,3.695-0.163,8.479-0.768,11.966c9.368-0.445,18.41-0.687,27.484-0.739c-0.237-1.616-0.121-3.442,0-5.337
		C888.142,380.954,888.353,377.572,887.753,376.967z"/>
	<path fill="#03566D" d="M815.911,378.312c-5.989,0.161-8.495,0.366-9.537,0.508c-0.405,1.426-0.832,5.816-1.132,12.913
		c3.442-0.263,6.879-0.568,10.31-0.874c9.126-0.811,18.531-1.647,27.942-1.671c-0.237-3.095,0.237-6.516,0.674-9.639
		c0.1-0.721,0.2-1.424,0.284-2.097c-5.6-0.287-21.242,0.403-27.71,0.834L815.911,378.312z"/>
	<path fill="#03566D" d="M789.459,392.322c0.616-1.137-0.016-8.442-0.253-11.189c-0.058-0.705-0.116-1.376-0.163-1.997
		c-10.684-0.476-21.984-0.371-35.931,0.345c0.505,4.192,0.016,9.395-0.505,13.568c5.532-0.047,11.063-0.211,16.6-0.374
		c6.605-0.192,13.216-0.387,19.826-0.387l0.411,0.032l-0.411,2.663L789.459,392.322z"/>
	<path fill="#03566D" d="M726.617,380.13c-8.174-0.342-16.6-0.7-22.61,1.408c-1.337,0.471-2.526,0.75-3.568,0.837
		c-0.232,1.095-0.6,2.537-1.19,4.434c-0.579,1.866-0.963,4.821-1.132,7.466c3.758-0.111,7.51-0.268,11.263-0.429
		c6.51-0.276,13.247-0.561,19.905-0.579l0.953,0.034c1.316,0.047,4.989,0.197,6.553-0.029c0.521-1.903-0.1-7.963-0.374-10.658
		c-0.079-0.795-0.153-1.55-0.216-2.245C733.196,380.414,729.98,380.272,726.617,380.13z"/>
	<path fill="#03566D" d="M626.896,394.101c7.316-0.153,14.9-0.226,23.095-0.226c8.763,0,18.221,0.087,28.821,0.258
		c-0.174-2.724,0.216-5.684,0.579-8.4c0.174-1.339,0.347-2.611,0.421-3.724l-6.6,0.055c-15.016,0.118-30.51,0.239-45.779,0.7
		c0.463,3.326-0.016,7.179-0.426,10.471C626.97,393.528,626.933,393.817,626.896,394.101z"/>
	<path fill="#03566D" d="M581.27,384.493c-4.468,0.074-8.505,0.142-11.326,0.203c0.547,3.097,0.253,6.805-0.021,10.211
		c-0.042,0.518-0.084,1.018-0.116,1.495c6.674-0.271,13.347-0.592,20.026-0.913c6.163-0.295,12.326-0.592,18.489-0.847
		c-0.579-3.487-0.153-7.776,0.342-10.818C604.165,384.112,596.059,384.246,581.27,384.493z"/>
	<path fill="#03566D" d="M509.76,387.285l-3.995,0.145c-0.053,1.661-0.342,3.476-0.642,5.35c-0.337,2.132-0.884,5.558-0.447,6.884
		c2.589,0.503,11.537-0.516,14.589-0.863c1.563-0.176,2.737-0.305,3.221-0.324c4.795-0.187,9.584-0.458,14.374-0.726
		c4.51-0.255,9.026-0.511,13.547-0.697c-0.374-3.426,0.279-7.616,0.995-11.482C537.486,386.28,523.407,386.791,509.76,387.285z"/>
	<path fill="#03566D" d="M457.186,388.662c-2.484,0.508-4.121,0.511-5.153,0.455c-0.089,0.247-0.195,0.537-0.321,0.876l-0.895,2.358
		c-0.463,1.2-0.395,2.847-0.316,4.592c0.042,0.976,0.089,2.016,0.042,3.074c5.105-0.095,10.205-0.274,15.31-0.453
		c6.489-0.229,13.168-0.463,19.81-0.518c-0.005-2.376,0.3-4.837,0.579-7.089c0.132-1.032,0.258-2.034,0.342-2.974l0.132-1.003
		c-2.837-0.074-5.653-0.087-8.447-0.171C471.055,387.588,463.602,387.357,457.186,388.662z"/>
	<path fill="#03566D" d="M433.039,390.017c-4.405,0.132-9.142-0.016-14.116-0.174c-9.8-0.318-19.931-0.637-27.631,1.376
		c-1.063,0.276-1.905,0.442-2.568,0.537c-0.205,0.826-0.537,1.842-1.079,3.168c-0.632,1.542-0.626,4.826-0.616,7.221
		c0,0.055,0,0.108,0,0.163c9.426,0.455,19.274,0.721,28.468,0.029l2.405-0.142c8.068-0.432,13.084-0.932,14.937-1.482
		c0.216-1.558,0.137-5.082,0.1-6.708c-0.032-1.411-0.047-2.582-0.005-3.158L433.039,390.017z"/>
	<path fill="#03566D" d="M933.705,718.276c4.026-11.189,8.189-22.758,11.684-34.3l1.016-3.353c3.526-11.605,8.353-27.5,8.958-34.021
		c0.832-8.387,1.426-12.671,2.116-14.831c4.805-59.887,6.9-125.663,5.747-180.623l-0.079-3.829
		c-0.237-11.371-0.484-23.129-1.079-34.639l-0.111-2.76c-0.2-6.224-0.442-8.092-4.642-9.755c-4.568-1.816-17.284-0.326-25.695,0.65
		c-3.374,0.395-6.347,0.739-8.447,0.863c-12.279,0.721-24.632,1.595-37.016,2.471c-29.41,2.076-59.81,4.224-89.484,4.289v0.003
		l-3.463,0.061c-0.121-0.005-0.474-0.011-0.905-0.013c-1.163,0.039-2.8,0.039-5.158,0.039c-8.516,0-17.458,0.226-26.521,0.458
		c-9.363,0.237-18.858,0.479-28.158,0.479c-0.679,0.008-6.4,0.034-7.916,0.034c-4.995,0.253-13.995,0.211-23.537,0.171
		c-12.358-0.042-26.395-0.113-33.105,0.503c-33.516,0.489-67.384,1.703-100.136,2.876c-41.91,1.503-85.231,3.055-127.915,3.089
		c-8.147,0-16.421,0.611-24.421,1.203c-10.195,0.755-20.721,1.542-31.389,1.095c-2.663-0.108-6.058-0.692-9.995-1.368
		c-5.232-0.897-11.405-1.958-16.732-1.958c-5.642,0-10.326,1.189-11.932,5.024c-1.789,4.279-1.311,11.313-0.884,17.521
		c0.226,3.345,0.442,6.503,0.342,9.274c-0.432,11.871-0.711,24.36-0.884,39.305c-0.226,18.853,0.395,37.889,0.995,54.252
		l0.237,6.034c0.189,4.526,0.379,9.053,0.447,13.584c0.042,2.837-0.221,6.384-0.505,10.137c-0.6,7.937-1.347,17.816,0.942,22.85
		c2.711,5.966,18.895,18.158,33.731,27.595c33.616,23.487,64.989,64.647,52.521,109.934c-5.247,19.074-16.9,36.363-28.174,53.079
		c-3.484,5.168-6.926,10.274-10.105,15.337c-0.958,1.521-1.884,2.9-2.747,4.19c-4.7,7.01-6.642,9.91-1.953,16.868
		c4.4,6.532,9.526,13.337,14.826,19.684c28.574,34.216,58.016,58.395,90.015,73.921c11.784,5.721,24.379,10.395,38.495,14.279
		c3.484,0.963,7.358,1.611,11.458,2.295c5.837,0.974,11.868,1.984,16.958,4c1.879,0.747,2.942,0.879,3.642,0.963
		c3.426,0.421,3.595,2.6,3.768,4.905c0.068,0.842,0.158,2,0.347,3.61c0.379,3.211,0.184,6.547,0.005,9.784
		c-0.084,1.416-0.163,2.821-0.189,4.179l-0.026,2.295c-0.026,4.626-0.047,7.963-3.153,12.2c-2.368,3.221-6.721,5.974-10.932,8.637
		c-2.632,1.663-5.116,3.237-6.758,4.7c-18.489,16.505-30.421,37.684-33.6,59.637c-6.011,41.453,20.726,81.489,65.021,97.368
		c49.084,17.6,107.163,3.253,141.236-34.9c33.963-38.026,32.558-93.415-3.189-126.105c-5.189-4.737-10.979-9-17.211-12.663
		c-0.7-0.411-1.526-0.789-2.363-1.179c-1.626-0.758-3.311-1.537-4.674-2.663c-1.995-1.642-2.947-2.021-3.516-2.242
		c-2.295-0.911-2.574-1.989-3.5-5.553l-0.547-2.079c-1.805-6.763-2.468-19.453-1.337-25.616c0.179-0.963,0.116-1.742,0.047-2.568
		c-0.116-1.442-0.274-3.411,1.458-5.095c1.726-1.679,5.532-2.047,11.595-2.453c1.674-0.111,3.121-0.189,3.858-0.342
		c1.795-0.374,3.558-0.795,5.3-1.211c1.721-0.416,3.426-0.821,5.116-1.174c31.21-6.542,55.016-14.342,74.773-24.521l-0.068-0.168
		c22.726-9.332,46.342-25.016,70.21-46.631l-0.147-0.221c1.963-1.5,3.91-3.121,5.789-4.826l-0.142-0.195
		c10.289-8.268,16.368-18.021,22.81-28.347c2.379-3.816,4.816-7.721,7.532-11.679l0.021-0.026
		c16.2-22.921,29.952-49.942,40.879-80.305L933.705,718.276z M681.512,1073.059c-10.221,21.289-28.431,29.795-46.263,29.795
		c-6.547,0-13.042-1.147-19.074-3.226c-21.689-7.489-41.926-29.631-35.095-60.563c5.568-25.231,29.247-43.168,55.163-41.742
		c17.547,0.963,33.552,10.942,42.816,26.695C688.075,1039.343,688.991,1057.675,681.512,1073.059z"/>
	<path fill="#03566D" d="M1010.858,940.891c1.637-3.084,3.321-6.274,5.911-7.979c3.821-2.516,9.474-2.032,15.437-1.516
		c5.226,0.442,10.626,0.911,14.747-0.574c7.453-2.679,13.642-7.963,20.384-14.084l1.574-1.411c2.674-2.379,5.2-4.626,6.874-7.437
		c1.437-2.411,1.826-6.079,2.195-9.621c0.442-4.2,0.858-8.163,2.926-11.063c2.279-3.205,6.084-5,10.11-6.905
		c3.979-1.879,8.095-3.826,10.705-7.179c11.105-14.253,7.584-34.116,4.479-51.637c-0.716-4.026-1.411-7.953-1.921-11.705
		l-0.189-1.379l1.016-0.953c11.158-10.437,10.51-24.526-1.916-41.868l-0.047-0.063c-11.558-17.153-28.237-31.847-44.363-46.052
		c-9.579-8.442-19.489-17.168-28.079-26.232c-8.905-9.395-18.295-18.689-27.368-27.679c-9.942-9.847-20.179-19.989-29.942-30.4
		c-3.105,30.034-13.305,59.5-23.947,86.963l-2.51,6.132c-7.458,18.253-17.668,43.252-28.974,61.647
		c-2.553,4.158-5.447,8.358-8.247,12.426c-5.242,7.6-10.658,15.458-14.195,23.505c-1,2.263-1.768,3.553-2.268,4.395
		c-0.021,0.037-0.042,0.068-0.063,0.105c0.084,0.137,0.179,0.289,0.289,0.468c0.31,0.521,0.711,1.184,1.205,2.063
		c1.037,1.842,3.737,3.974,6.126,5.858c1.289,1.016,2.526,1.995,3.521,2.916c3.195,2.953,7.074,6.126,11.184,9.484
		c14.558,11.895,31.063,25.379,33.158,41.258c0.479,3.642,0.768,7.937,1.074,12.479c0.979,14.495,2.195,32.526,10.51,40.652
		c6.032,5.889,20.616,7.368,32.263,6.868c5.91-0.279,10.126-1.81,14.095-5.126C1008.195,945.928,1009.547,943.365,1010.858,940.891z
		"/>
	<path fill="#03566D" d="M395.966,765.855c10.089-15.305,20.521-31.131,22.121-48.316c1.847-19.884-5.279-41.26-19.553-58.644
		c-12.505-17.26-33.8-31.863-52.589-44.75l-5.916-4.068c-22.105-15.274-43.821,8.874-59.679,26.489l-0.805,0.889
		c-27.442,30.46-62.731,71.284-92.3,116.957l-0.032-0.016c-0.474,0.795-0.837,1.442-1.168,2.095
		c-2.695,5.374-2.821,9.537-2.974,14.353c-0.089,2.768-0.179,5.632-0.742,8.932c-0.989,5.721-5.289,9.963-9.447,14.068
		c-0.932,0.921-1.874,1.858-2.795,2.816c-1.979,2.095-4.121,4.089-6.2,6.026c-1.305,1.216-2.605,2.432-3.858,3.658l0.111,0.137
		c-9.158,8.005-22.153,9.237-34.726,10.432c-8.379,0.795-16.295,1.542-22.995,4.142c-14.716,5.721-16.621,17.216-14.921,33.905
		c1.347,13.137,6.679,19.268,19.016,21.868c1.674,0.353,3.305,0.521,4.847,0.69c4.311,0.463,8.763,0.937,11.647,4.995
		c1.568,2.205,2.379,6.121,3.232,10.268c0.611,2.963,1.242,6.032,2.032,7.653c3.232,6.621,6.963,11.158,11.41,13.874
		c5.611,3.432,11.647,3.863,19.579,3.5c3.4-0.163,6.837-0.505,10.253-0.837l4.132-0.395c1.674-0.153,3.679-0.579,5.753-1.011
		c3.153-0.658,6.395-1.337,9.226-1.337c0.553,0,1.084,0.026,1.6,0.084c4,0.442,5.316,1.289,7.295,2.747
		c0.668,0.489,1.474,1.084,2.674,1.805c13.216,7.916,26.179,4.753,39.905,1.395c3.726-0.911,7.479-1.826,11.279-2.537
		c15.416-2.9,27.337-5.779,40.442-16.51c11.153-9.142,20.231-21.316,29.01-33.089c1.563-2.1,3.126-4.189,4.695-6.263
		c6.537-8.632,13.195-17.068,19.821-25.463c16.095-20.389,31.3-39.647,44.563-61.21
		C391.845,772.108,393.887,769.008,395.966,765.855z"/>
	<path fill="#03566D" d="M633.817,1014.328c-4.289,0-8.521,0.684-12.453,1.942c-13.574,4.332-28.237,17.326-24.889,39.689
		c2.2,14.705,10.405,24.9,23.1,28.705c14.505,4.332,32.405-0.695,42.537-11.99c9.079-10.121,10.747-23.573,4.695-37.884
		C659.401,1020.196,646.365,1014.328,633.817,1014.328z"/>
</g>
</svg>
